<svg xmlns="http://www.w3.org/2000/svg" viewBox="0 0 164.98 102.09"><defs><style>.cls-1{fill:#fefcfb;}</style></defs><title>codeAsset 1ldpi</title><g id="Layer_2" data-name="Layer 2"><g id="Layer_1-2" data-name="Layer 1"><path class="cls-1" d="M.73,93.23c-.32-.08-.56-.41-.73-1a6.53,6.53,0,0,1,.25-1.6,59.38,59.38,0,0,1,2.21-8.84,22.32,22.32,0,0,0,.85-4.29q.48-11.76,1-17.92c.17-2.2.45-5.29.86-9.25s.66-6.48.75-7.54L7.1,30.54a209.68,209.68,0,0,1,3.44-26l.63-2.83c.08-.17.17-.41.29-.73a2.89,2.89,0,0,0,.19-.63A.58.58,0,0,1,12.27,0a1.4,1.4,0,0,1,.86.48,7.44,7.44,0,0,1,.12,1.73C13,3.85,12.71,6.3,12.4,9.56q-1,8-1.36,12.65-.37,3.06-.94,9.31c-.36,4.17-.62,7.31-.79,9.44Q7.48,58.75,6.88,66.1v2a3.59,3.59,0,0,0,1.1-2Q11.4,56.55,21.83,31q4.43-10.55,7-15.69A71.83,71.83,0,0,1,35.21,4.67c.4-.59,1-1.36,1.83-2.34,1.72-1.55,2.82-1.23,3.31,1a10.28,10.28,0,0,1,.25,2,52.91,52.91,0,0,1-.25,6.13q-.49,5.3-2.93,20.37Q35.2,45.15,33.85,53.6c-.16,1.14-.37,2.82-.62,5s-.44,3.89-.6,5a4.81,4.81,0,0,0,1.1-1.73A94.57,94.57,0,0,1,38,50.54,26.71,26.71,0,0,1,41,45.38a4.87,4.87,0,0,1,1.35-1.46,1.56,1.56,0,0,1,1.42-.5,1.5,1.5,0,0,1,1.17,1,19.13,19.13,0,0,1,.6,2.2c.25,1.64.54,4.39.88,8.23a60.82,60.82,0,0,0,1.45,8,11.1,11.1,0,0,0,1.48,3.31,6.7,6.7,0,0,0,3.44,3.09,5,5,0,0,0,3.44.23,19.28,19.28,0,0,0,7.1-3.54,66.79,66.79,0,0,0,8-7.61l.73-.79a9.94,9.94,0,0,1,.92-.92q.56-.5.81-.75a.45.45,0,0,1,.35.13.64.64,0,0,1,.13.48l-.86,1.1c-.16.17-.59.68-1.29,1.54s-1.16,1.42-1.41,1.67-.69.72-1.36,1.46a16.14,16.14,0,0,1-1.64,1.66l-1.71,1.4c-.7.57-1.41,1.13-2.15,1.67s-1.51,1-2.33,1.52a23,23,0,0,1-3.94,2q-5.62,2-9.06-2.84a15.22,15.22,0,0,1-2.08-4.41,69.75,69.75,0,0,1-1.48-8.46c-.34-3.43-.62-6.05-.86-7.86a3.67,3.67,0,0,0-.25-1.1c-.16-.57-.49-.69-1-.37-.82,1.15-1.43,2-1.85,2.7a51.88,51.88,0,0,0-4.4,9.69q-.62,1.71-1.73,5.15c-.74,2.29-1.3,4-1.7,5.16a3.35,3.35,0,0,1-.13.57,2.23,2.23,0,0,1-.25.6,1.8,1.8,0,0,1-.37.35.61.61,0,0,1-.61.07.52.52,0,0,1-.5-.23c-.08-.17-.14-.31-.19-.44a1.93,1.93,0,0,1,0-.6,4.22,4.22,0,0,0,.07-.57,86.57,86.57,0,0,1,.75-10.56q1.1-8.7,4-25.87,1.61-9.31,2.94-19.63A28.13,28.13,0,0,0,39,3.92a1,1,0,0,0-.35-.86c-.25-.08-.59.09-1,.5A22.34,22.34,0,0,0,36.06,5.4a69.68,69.68,0,0,0-7.23,12.27q-2.1,4.54-10.06,23.41Q12.5,56.29,7.85,69.42a25.46,25.46,0,0,0-1.72,8.1A38.37,38.37,0,0,1,3.06,90.9,4.5,4.5,0,0,1,1.83,93,1,1,0,0,1,.73,93.23Z"/><path class="cls-1" d="M75.67,65.75a4,4,0,0,1-3.79-3.44,12.15,12.15,0,0,1-.13-2.08,13.08,13.08,0,0,1,1.61-6.63,8.85,8.85,0,0,1,1.58-2,3.52,3.52,0,0,1,2.21-.75,2,2,0,0,1,1.6,3.31A9.16,9.16,0,0,1,74.56,57c-.89.16-1.41.81-1.58,2a6.31,6.31,0,0,0,.38,3.44,3,3,0,0,0,2.31,2.08q4.53.48,12.27-7.25L89,56.19a.83.83,0,0,1,.5.1.88.88,0,0,1,.13.38.79.79,0,0,1-.25.6,30.45,30.45,0,0,1-6.94,5.92Q78.25,65.88,75.67,65.75ZM74,55.44A8.88,8.88,0,0,0,77.4,53c.16-.07.16-.19,0-.35,0-.17-.13-.25-.38-.25a1.22,1.22,0,0,0-1.35.37A4.93,4.93,0,0,0,74,55.44Z"/><path class="cls-1" d="M89.66,70.29a2.77,2.77,0,0,1-3.31-.87,5.36,5.36,0,0,1-1.48-5,18,18,0,0,1,5-10.07l1.46-1a2.69,2.69,0,0,1,1.36-.25,1.45,1.45,0,0,1,1.6,1.23,1.77,1.77,0,0,1-.62,1.61q-4,2.94-5.4,9.81a3.24,3.24,0,0,0,.13,2.33c.31.66.72.86,1.22.61a17.1,17.1,0,0,0,1.71-.86,14.8,14.8,0,0,0,3.19-2.58,65.2,65.2,0,0,0,7.6-10.67.78.78,0,0,0-.22-1.23Q96.17,48.69,94.21,39a41,41,0,0,1,1.7-21.21,27.23,27.23,0,0,1,2.82-5.52,18,18,0,0,1,5.64-4.92,10.57,10.57,0,0,1,3.57-1.1q4.41-.72,6.12,3.31a13.54,13.54,0,0,1,1.35,7.36,61.7,61.7,0,0,1-2.56,14.73A128.58,128.58,0,0,1,105,51.15a3.45,3.45,0,0,0-.25.62q-.61,1.33,0,1.71l1.35.73a18,18,0,0,0,4.65,1.35c.41.09,1,.19,1.85.32a14,14,0,0,0,1.71.18c.33.16.5.36.5.61,0,.08-.21.21-.62.37h-.48a19.28,19.28,0,0,1-9-2,2.19,2.19,0,0,1-.61-.37c-.5-.25-.87-.17-1.1.25a10.19,10.19,0,0,0-.88,1.46c-1.79,2.78-3.14,4.82-4,6.14a19.9,19.9,0,0,1-5.52,5.88A10.83,10.83,0,0,1,89.66,70.29Zm12.88-18.16c.48.25.85.2,1.1-.13a5.15,5.15,0,0,1,.5-.85q8.2-16.44,9.82-28.59c.65-4.16.68-7.31.1-9.43a8.87,8.87,0,0,0-1.21-3.44,4.33,4.33,0,0,0-4.41-2.34,7.7,7.7,0,0,0-4.19,1.48,17.84,17.84,0,0,0-6.73,8.09q-2.34,5.4-3,14.85a56.29,56.29,0,0,0,1.35,9.44,25.23,25.23,0,0,0,3.92,8.1A17.83,17.83,0,0,0,102.54,52.13Z"/><path class="cls-1" d="M116.88,65.75a4,4,0,0,1-3.79-3.44,14.92,14.92,0,0,1,1.48-8.71,9.15,9.15,0,0,1,1.58-2,3.54,3.54,0,0,1,2.21-.75,2,2,0,0,1,1.6,3.31A9.19,9.19,0,0,1,115.78,57c-.89.16-1.42.81-1.59,2a6.4,6.4,0,0,0,.38,3.44,3,3,0,0,0,2.31,2.08q4.55.48,12.27-7.25l1.11-1.08a.85.85,0,0,1,.5.1,1,1,0,0,1,.12.38.76.76,0,0,1-.25.6,30.45,30.45,0,0,1-6.94,5.92Q119.46,65.88,116.88,65.75Zm-1.71-10.31A8.8,8.8,0,0,0,118.61,53c.17-.07.17-.19,0-.35,0-.17-.13-.25-.38-.25a1.22,1.22,0,0,0-1.35.37A4.93,4.93,0,0,0,115.17,55.44Z"/><path class="cls-1" d="M126.21,72c-.17,0-.25-.12-.25-.37a5.37,5.37,0,0,1,.85-2.09,58.74,58.74,0,0,1,4.42-6.75,2.05,2.05,0,0,0,0-2.81l-2.81-5.15c-.33-.73-.33-1.27,0-1.6.48-.49,1.05-.36,1.71.37l2.21,3.07a12.75,12.75,0,0,0,1.72,2.21,10.9,10.9,0,0,0,1.84-1.61,80,80,0,0,1,9.81-8.08,2.66,2.66,0,0,1,1.23-.63.85.85,0,0,1,.37.13h.13v.25A4.89,4.89,0,0,1,146,50.29c-2.7,2-5.1,4-7.23,5.9-.74.65-1.84,1.72-3.31,3.19-.58.73-.67,1.39-.25,1.95a39.27,39.27,0,0,0,4.54,6.38,10.24,10.24,0,0,0,5.4,3.69,6.91,6.91,0,0,0,5.14-.5,13.32,13.32,0,0,0,3.06-2,56.52,56.52,0,0,0,5.17-5.27q4.77-6.15,5.4-7l.73-.61c0-.16.08-.16.25,0l.12.13v.23a8.86,8.86,0,0,1-.62,1.23,90.37,90.37,0,0,1-9.44,11.29,21.86,21.86,0,0,1-3.56,2.69,9.66,9.66,0,0,1-10.55-.36,17.91,17.91,0,0,1-4.06-3.69,27.37,27.37,0,0,1-2-2.25c-.82-1-1.47-1.79-1.95-2.29-.34,0-.71.29-1.11.86l-4.17,6.62a5.37,5.37,0,0,1-1,1.36.2.2,0,0,1-.13.18A.21.21,0,0,1,126.21,72Z"/><path class="cls-1" d="M37.84,101.93v-.78h-4v-2.9h3.89v-.79H33.83V94.55h4v-.78H33v8.16Z"/><path class="cls-1" d="M46.69,98.09a5.89,5.89,0,0,1,2.17.84,1,1,0,0,1,.39.83,1.29,1.29,0,0,1-.22.8,2.2,2.2,0,0,1-1.91.75c-1.28,0-2-.42-2.16-1.29H44c.29,1.38,1.33,2.07,3.14,2.07a3.54,3.54,0,0,0,2-.53,2.1,2.1,0,0,0,1-1.87,1.75,1.75,0,0,0-.8-1.54,5.67,5.67,0,0,0-1.8-.72,8.62,8.62,0,0,1-1.63-.53,1.25,1.25,0,0,1-.82-1.16,1.17,1.17,0,0,1,.17-.67,1.87,1.87,0,0,1,1.66-.7c1.11,0,1.75.36,1.92,1h.91c-.3-1.17-1.25-1.77-2.83-1.77a3.12,3.12,0,0,0-1.89.58,1.94,1.94,0,0,0-.81,1.71C44.2,97,45,97.71,46.69,98.09Z"/><path class="cls-1" d="M55.46,94.52h2v7.38h.85V94.52h2v-.77H55.46Z"/><path class="cls-1" d="M72.54,97.85a4.16,4.16,0,0,0-.33-1.63,4.12,4.12,0,0,0-.89-1.3A4.17,4.17,0,0,0,70,94.08a4.56,4.56,0,0,0-1.65-.31H66.21v8.16h2.13a4.21,4.21,0,0,0,3-1.15,4,4,0,0,0,.89-1.29A4.17,4.17,0,0,0,72.54,97.85Zm-.81,0a3.1,3.1,0,0,1-1,2.33,3.33,3.33,0,0,1-2.37.91H67.05V94.61h1.32a3.38,3.38,0,0,1,2.37.91A3.1,3.1,0,0,1,71.73,97.85Z"/><path class="cls-1" d="M86.68,101.93h5.75v-.84H88.71l2.84-2.82a2.69,2.69,0,0,0,0-3.83,2.74,2.74,0,0,0-2-.8,2.69,2.69,0,0,0-2,.84,2.6,2.6,0,0,0-.76,2h.85a1.72,1.72,0,0,1,.51-1.38,1.82,1.82,0,0,1,1.37-.6,1.87,1.87,0,0,1,1.33.54,1.8,1.8,0,0,1,.56,1.31,1.78,1.78,0,0,1-.54,1.32Z"/><path class="cls-1" d="M102.11,94.72a2.15,2.15,0,0,1,.85,1.12,5.93,5.93,0,0,1,.35,2,4.52,4.52,0,0,1,0,.6,4.12,4.12,0,0,1-.69,2.08,1.36,1.36,0,0,1-1.13.63,1.44,1.44,0,0,1-1.22-.62,2.33,2.33,0,0,1-.35-.64,3.79,3.79,0,0,1-.21-.73c0-.23-.08-.47-.1-.72a6.28,6.28,0,0,1,0-.79,5.92,5.92,0,0,1,.13-1.13,4,4,0,0,1,.21-.73,2.24,2.24,0,0,1,.34-.65,1.65,1.65,0,0,1,.5-.45,1.43,1.43,0,0,1,1.39,0Zm-.65,7.32a2.33,2.33,0,0,0,2.17-1.42,6.84,6.84,0,0,0,0-5.56,2.38,2.38,0,0,0-4.35,0,7,7,0,0,0,0,5.56A2.33,2.33,0,0,0,101.46,102Z"/><path class="cls-1" d="M110.38,101.93h5.75v-.84h-3.72l2.84-2.82a2.69,2.69,0,0,0,0-3.83,2.74,2.74,0,0,0-2-.8,2.69,2.69,0,0,0-2,.84,2.6,2.6,0,0,0-.76,2h.85a1.72,1.72,0,0,1,.51-1.38,1.82,1.82,0,0,1,1.37-.6,1.87,1.87,0,0,1,1.33.54,1.8,1.8,0,0,1,.56,1.31,1.78,1.78,0,0,1-.54,1.32Z"/><path class="cls-1" d="M122.56,101.93h5.75v-.84h-3.72l2.84-2.82a2.69,2.69,0,0,0,0-3.83,2.74,2.74,0,0,0-2-.8,2.69,2.69,0,0,0-2,.84,2.6,2.6,0,0,0-.76,2h.85a1.72,1.72,0,0,1,.51-1.38,1.89,1.89,0,0,1,2.7-.06,1.8,1.8,0,0,1,.56,1.31,1.78,1.78,0,0,1-.54,1.32Z"/></g></g></svg>